<svg width="88" height="80" viewBox="0 0 88 80" fill="none" xmlns="http://www.w3.org/2000/svg">
<path d="M39.668 9.81055H8.29102L11.9824 1.37305H48.1055V56.5332C48.1055 63.002 45.7852 68.5391 41.1445 73.1445C36.5039 77.7148 30.8965 80 24.3223 80C17.6777 80 12.0703 77.7148 7.5 73.1445C2.85938 68.4688 0.539062 62.9316 0.539062 56.5332V56.0586L8.97656 52.209V56.6914C8.97656 60.875 10.4883 64.4609 13.5117 67.4492C16.5352 70.4375 20.1387 71.9316 24.3223 71.9316C28.5762 71.9316 32.1973 70.4551 35.1855 67.502C38.1738 64.5137 39.668 60.9102 39.668 56.6914V9.81055ZM63.3141 32.1172C70.1695 32.8906 75.777 35.3867 80.1363 39.6055C84.777 44.1055 87.0973 49.625 87.0973 56.1641V56.3223C87.0973 63.002 84.8121 68.6094 80.2418 73.1445C75.6363 77.7148 70.0289 80 63.4195 80C56.7398 80 51.1324 77.7148 46.5973 73.1445C41.9566 68.4336 39.6363 62.8965 39.6363 56.5332V55.8477L48.0738 52.1562V56.6914C48.0738 60.9102 49.5855 64.4961 52.609 67.4492C55.6324 70.4375 59.2359 71.9316 63.4195 71.9316C67.6734 71.9316 71.2945 70.4375 74.2828 67.4492C77.2711 64.4258 78.7652 60.8223 78.7652 56.6387C78.7652 52.2441 77.3238 48.6758 74.441 45.9336C71.1363 42.8047 67.5328 41.0996 63.6305 40.8184C56.9508 40.291 51.7125 38.1289 47.9156 34.332C43.9781 30.4297 42.0094 25.7188 42.0094 20.1992C42.0094 14.6445 43.943 9.95117 47.8102 6.11914C51.6773 2.25195 56.3531 0.318359 61.8375 0.318359C67.3922 0.318359 72.0855 2.25195 75.9176 6.11914C79.8199 10.0566 81.7711 14.7324 81.7711 20.1465V20.6738L73.3336 24.4707V20.3047C73.2633 17.0352 72.1383 14.3281 69.9586 12.1836C67.6734 9.93359 64.9664 8.80859 61.8375 8.80859C58.7086 8.80859 56.0543 9.89844 53.8746 12.0781C51.6246 14.3633 50.4996 17.0703 50.4996 20.1992C50.4996 23.3281 51.6246 26.0176 53.8746 28.2676C55.984 30.377 59.1305 31.6602 63.3141 32.1172Z" fill="white"/>
</svg>
